<svg id="svg" version="1.1" xmlns="http://www.w3.org/2000/svg" xmlns:xlink="http://www.w3.org/1999/xlink" width="400" height="150" viewBox="0, 0, 400,150"><g id="svgg"><path id="path0" d="M89.875 13.276 C 89.758 13.324,89.667 13.648,89.667 14.014 L 89.667 14.667 88.250 14.667 L 86.833 14.667 86.833 15.333 L 86.833 16.000 85.518 16.000 C 84.115 16.000,84.000 16.070,84.000 16.920 C 84.000 17.254,83.906 17.321,83.375 17.365 C 82.768 17.415,82.748 17.437,82.699 18.125 C 82.648 18.830,82.644 18.833,81.990 18.833 C 81.335 18.833,81.333 18.835,81.333 19.500 C 81.333 20.085,81.286 20.167,80.949 20.167 C 80.215 20.167,79.994 20.506,79.886 21.794 C 79.787 22.982,79.778 23.000,79.315 23.000 C 78.605 23.000,78.500 23.395,78.500 26.062 L 78.500 28.480 77.875 28.532 L 77.250 28.583 77.208 63.823 C 77.174 91.905,77.208 99.090,77.375 99.196 C 77.489 99.269,77.790 99.329,78.042 99.331 L 78.500 99.333 78.500 101.316 C 78.500 103.448,78.522 103.500,79.430 103.500 C 79.810 103.500,79.833 103.556,79.836 104.458 C 79.839 105.977,79.932 106.167,80.677 106.167 C 81.308 106.167,81.315 106.174,81.365 106.875 C 81.415 107.563,81.435 107.585,82.042 107.635 C 82.649 107.685,82.667 107.705,82.667 108.343 C 82.667 108.995,82.672 109.000,83.312 109.000 C 83.936 109.000,83.961 109.022,84.064 109.667 L 84.171 110.333 85.502 110.333 L 86.833 110.333 86.833 110.982 C 86.833 111.804,86.915 111.833,89.170 111.833 L 90.980 111.833 91.032 112.458 L 91.083 113.083 101.417 113.083 L 111.750 113.083 111.802 112.458 L 111.853 111.833 113.727 111.833 C 115.798 111.833,116.000 111.749,116.000 110.890 L 116.000 110.347 117.292 110.299 L 118.583 110.250 118.635 109.634 C 118.684 109.040,118.710 109.016,119.385 108.967 C 120.059 108.918,120.085 108.895,120.134 108.301 C 120.183 107.723,120.223 107.683,120.801 107.634 C 121.397 107.585,121.418 107.560,121.468 106.875 C 121.519 106.170,121.522 106.167,122.176 106.167 L 122.833 106.167 122.833 104.833 L 122.833 103.500 123.383 103.500 C 124.190 103.500,124.333 103.257,124.333 101.883 C 124.333 100.706,124.346 100.667,124.738 100.667 C 125.704 100.667,125.667 101.125,125.667 89.321 L 125.667 78.500 118.083 78.500 L 110.500 78.500 110.500 85.413 L 110.500 92.327 110.042 92.427 C 109.790 92.483,109.500 92.553,109.399 92.583 C 109.195 92.644,109.005 93.581,109.002 94.542 C 109.000 95.092,108.952 95.167,108.595 95.167 C 108.077 95.167,107.667 95.577,107.667 96.095 C 107.667 96.412,107.579 96.500,107.264 96.500 C 106.514 96.500,106.333 96.665,106.333 97.351 L 106.333 98.000 102.083 98.000 L 97.833 98.000 97.833 97.427 C 97.833 96.714,97.805 96.697,96.363 96.563 L 95.184 96.454 95.134 95.852 C 95.085 95.272,95.057 95.248,94.375 95.199 L 93.667 95.148 93.667 82.658 L 93.667 70.168 109.625 70.126 L 125.583 70.083 125.583 48.000 L 125.583 25.917 124.958 25.762 L 124.333 25.608 124.331 24.346 C 124.329 22.802,124.179 21.823,123.934 21.749 C 123.833 21.719,123.544 21.649,123.292 21.594 C 122.885 21.505,122.833 21.419,122.833 20.830 C 122.833 20.167,122.833 20.167,122.167 20.167 L 121.500 20.167 121.500 19.500 C 121.500 18.835,121.498 18.833,120.843 18.833 C 120.189 18.833,120.186 18.830,120.135 18.125 C 120.084 17.420,120.080 17.416,119.375 17.365 C 118.670 17.314,118.667 17.311,118.667 16.657 C 118.667 16.003,118.663 16.000,118.010 16.000 C 117.372 16.000,117.352 15.983,117.302 15.375 L 117.250 14.750 115.218 14.703 L 113.185 14.657 113.134 13.953 L 113.083 13.250 101.583 13.221 C 95.258 13.205,89.990 13.230,89.875 13.276 M132.875 13.277 C 132.709 13.344,132.667 25.864,132.667 75.097 L 132.667 136.833 140.250 136.833 L 147.833 136.833 147.862 122.208 C 147.878 114.165,147.920 107.902,147.955 108.292 C 148.018 108.992,148.026 109.000,148.666 109.000 C 149.294 109.000,149.315 109.019,149.365 109.625 L 149.417 110.250 150.792 110.298 L 152.167 110.347 152.167 111.004 C 152.167 111.756,152.261 111.803,153.917 111.874 C 154.871 111.915,154.919 111.937,154.969 112.375 C 155.060 113.163,155.173 113.173,163.534 113.127 L 171.417 113.083 171.468 112.458 L 171.520 111.833 172.727 111.833 C 174.089 111.833,174.333 111.689,174.333 110.883 C 174.333 110.353,174.357 110.333,175.000 110.333 L 175.667 110.333 175.667 109.667 L 175.667 109.000 176.333 109.000 C 176.998 109.000,177.000 108.998,177.000 108.343 C 177.000 107.689,177.003 107.686,177.708 107.635 C 178.413 107.584,178.417 107.580,178.468 106.875 C 178.519 106.170,178.522 106.167,179.176 106.167 L 179.833 106.167 179.833 104.833 C 179.833 103.534,179.844 103.500,180.236 103.500 C 181.172 103.500,181.167 103.518,181.167 100.566 L 181.167 97.833 181.814 97.833 C 182.344 97.833,182.479 97.766,182.562 97.458 C 182.693 96.966,182.697 29.107,182.566 28.764 C 182.497 28.586,182.253 28.500,181.816 28.500 L 181.167 28.500 181.167 25.750 L 181.167 23.000 180.500 23.000 L 179.833 23.000 179.833 21.583 L 179.833 20.167 179.167 20.167 L 178.500 20.167 178.498 19.208 C 178.494 17.731,178.393 17.514,177.656 17.396 C 177.065 17.301,177.014 17.249,176.967 16.688 C 176.920 16.120,176.879 16.080,176.292 16.032 C 175.794 15.990,175.667 15.912,175.667 15.646 C 175.667 14.833,175.399 14.667,174.088 14.667 L 172.853 14.667 172.802 14.045 C 172.729 13.168,172.586 13.156,163.055 13.207 L 154.917 13.250 154.866 13.953 L 154.815 14.656 152.866 14.703 L 150.917 14.750 150.833 15.333 C 150.755 15.885,150.712 15.919,150.042 15.968 C 149.337 16.019,149.333 16.022,149.333 16.676 C 149.333 17.330,149.330 17.333,148.676 17.333 L 148.018 17.333 147.956 18.125 C 147.922 18.560,147.880 17.668,147.863 16.143 C 147.838 13.785,147.794 13.354,147.570 13.268 C 147.255 13.147,133.175 13.156,132.875 13.277 M199.708 13.339 C 199.419 13.455,199.333 13.623,199.333 14.078 L 199.333 14.667 198.018 14.667 C 196.612 14.667,196.500 14.735,196.500 15.597 C 196.500 15.979,196.447 16.000,195.489 16.000 C 194.227 16.000,193.833 16.195,193.833 16.821 C 193.833 17.307,193.591 17.500,192.981 17.500 C 192.649 17.500,192.603 17.573,192.427 18.375 C 192.346 18.749,192.236 18.833,191.836 18.833 C 191.194 18.833,191.000 19.218,191.000 20.489 C 191.000 21.447,190.979 21.500,190.597 21.500 C 189.735 21.500,189.667 21.612,189.667 23.018 L 189.667 24.333 189.079 24.333 C 188.244 24.333,188.167 24.667,188.167 28.261 L 188.167 31.333 187.673 31.333 C 187.355 31.333,187.117 31.448,187.006 31.656 C 186.691 32.245,186.776 50.085,187.095 50.405 C 187.545 50.854,203.086 50.796,203.327 50.344 C 203.441 50.133,203.500 46.774,203.500 40.594 L 203.500 31.167 204.167 31.167 L 204.833 31.167 204.833 30.500 L 204.833 29.833 205.500 29.833 L 206.167 29.833 206.167 29.167 L 206.167 28.500 207.986 28.500 C 210.252 28.500,210.333 28.471,210.333 27.649 L 210.333 27.000 211.750 27.000 L 213.167 27.000 213.167 27.550 C 213.167 28.417,213.365 28.500,215.450 28.500 L 217.333 28.500 217.333 29.167 L 217.333 29.833 218.077 29.833 L 218.820 29.833 218.868 31.208 L 218.917 32.583 219.542 32.635 L 220.167 32.687 220.167 41.000 L 220.167 49.313 219.542 49.365 C 218.951 49.414,218.914 49.451,218.865 50.042 L 218.813 50.667 217.115 50.669 C 214.798 50.672,214.667 50.718,214.667 51.519 L 214.667 52.167 212.783 52.167 C 210.738 52.167,210.500 52.257,210.500 53.033 L 210.500 53.500 208.739 53.500 C 206.715 53.500,206.333 53.633,206.333 54.339 L 206.333 54.833 204.958 54.843 C 202.622 54.859,202.259 54.973,202.198 55.710 L 202.147 56.333 200.740 56.333 L 199.333 56.333 199.333 56.993 L 199.333 57.653 197.958 57.702 L 196.583 57.750 196.532 58.375 L 196.480 59.000 195.420 59.000 C 193.975 59.000,193.833 59.075,193.833 59.842 C 193.833 60.474,193.826 60.481,193.125 60.532 C 192.437 60.582,192.415 60.602,192.365 61.208 C 192.315 61.814,192.294 61.833,191.666 61.833 C 191.024 61.833,191.019 61.839,190.968 62.542 C 190.919 63.212,190.885 63.255,190.333 63.333 L 189.750 63.417 189.701 64.708 C 189.655 65.925,189.631 66.000,189.275 66.000 C 188.283 66.000,188.255 66.116,188.195 70.403 L 188.140 74.333 187.748 74.333 C 186.790 74.333,186.827 73.823,186.874 86.305 L 186.917 97.750 187.542 97.802 L 188.167 97.853 188.167 101.080 C 188.167 104.865,188.159 104.833,189.018 104.833 L 189.667 104.833 189.667 106.149 C 189.667 107.555,189.735 107.667,190.597 107.667 C 190.956 107.667,191.000 107.739,191.000 108.333 C 191.000 108.998,191.002 109.000,191.657 109.000 C 192.295 109.000,192.315 109.017,192.365 109.625 C 192.415 110.232,192.437 110.252,193.125 110.301 C 193.826 110.352,193.833 110.359,193.833 110.992 C 193.833 111.756,193.977 111.833,195.401 111.833 L 196.441 111.833 196.596 112.458 L 196.750 113.083 204.695 113.127 C 213.360 113.174,213.167 113.194,213.167 112.238 C 213.167 111.846,213.206 111.833,214.383 111.833 C 215.754 111.833,216.000 111.690,216.000 110.890 L 216.000 110.347 217.292 110.299 L 218.583 110.250 218.634 109.641 C 218.683 109.049,218.706 109.030,219.426 108.973 L 220.167 108.914 220.167 110.374 L 220.167 111.833 228.300 111.833 C 234.404 111.833,236.483 111.783,236.633 111.633 C 236.890 111.376,236.927 33.769,236.671 33.094 C 236.539 32.747,236.398 32.667,235.924 32.667 L 235.339 32.667 235.295 28.542 L 235.250 24.417 234.625 24.365 L 234.000 24.313 234.000 23.008 C 234.000 21.620,233.928 21.500,233.094 21.500 C 232.745 21.500,232.706 21.404,232.604 20.312 C 232.470 18.864,232.452 18.833,231.750 18.833 C 231.219 18.833,231.184 18.797,231.135 18.208 C 231.088 17.636,231.035 17.576,230.506 17.500 C 230.009 17.428,229.914 17.339,229.815 16.853 C 229.663 16.109,229.458 16.006,228.125 16.003 L 227.000 16.000 227.000 15.333 L 227.000 14.667 225.688 14.667 L 224.376 14.667 224.272 14.020 C 224.195 13.536,224.074 13.347,223.793 13.272 C 223.184 13.109,200.122 13.172,199.708 13.339 M242.526 13.385 C 242.380 13.561,242.343 25.614,242.375 62.684 L 242.417 111.750 250.667 111.750 L 258.917 111.750 259.000 72.167 L 259.083 32.583 259.667 32.500 C 260.201 32.424,260.254 32.365,260.301 31.801 C 260.351 31.206,260.377 31.183,261.051 31.134 C 261.728 31.085,261.752 31.064,261.802 30.458 L 261.853 29.833 263.177 29.833 L 264.500 29.833 264.500 29.163 L 264.500 28.493 268.042 28.538 L 271.583 28.583 271.637 29.000 C 271.701 29.501,272.091 29.833,272.615 29.833 C 272.926 29.833,273.000 29.924,273.000 30.300 C 273.000 30.892,273.274 31.167,273.866 31.167 L 274.333 31.167 274.375 71.458 L 274.417 111.750 282.667 111.750 L 290.917 111.750 290.959 72.208 L 291.001 32.667 291.345 32.667 C 291.998 32.667,292.333 32.356,292.333 31.751 L 292.333 31.181 293.625 31.132 L 294.917 31.083 295.000 30.500 L 295.083 29.917 296.250 29.833 C 297.642 29.734,297.833 29.632,297.833 28.990 L 297.833 28.500 301.323 28.500 L 304.813 28.500 304.865 29.125 C 304.915 29.732,304.937 29.752,305.625 29.801 L 306.333 29.852 306.333 70.742 C 306.333 107.874,306.358 111.640,306.597 111.732 C 306.742 111.788,310.454 111.833,314.847 111.833 L 322.833 111.833 322.833 67.417 L 322.833 23.000 322.167 23.000 L 321.500 23.000 321.500 21.239 C 321.500 19.215,321.367 18.833,320.661 18.833 C 320.213 18.833,320.167 18.782,320.167 18.283 C 320.167 17.588,319.912 17.333,319.217 17.333 C 318.686 17.333,318.667 17.310,318.667 16.667 L 318.667 16.000 318.000 16.000 L 317.333 16.000 317.333 15.333 L 317.333 14.667 315.917 14.667 L 314.500 14.667 314.500 14.018 C 314.500 13.123,314.954 13.166,305.695 13.169 C 296.302 13.172,296.702 13.134,296.561 14.020 L 296.457 14.667 295.145 14.667 L 293.833 14.667 293.833 15.327 L 293.833 15.987 292.458 16.035 L 291.083 16.083 291.032 16.699 C 290.984 17.277,290.944 17.317,290.366 17.366 C 289.770 17.415,289.748 17.440,289.699 18.125 L 289.648 18.833 288.907 18.833 C 288.270 18.833,288.167 18.785,288.167 18.489 C 288.167 17.933,287.850 17.500,287.444 17.500 C 286.963 17.500,286.667 17.204,286.667 16.723 C 286.667 16.317,286.233 16.000,285.678 16.000 C 285.412 16.000,285.333 15.894,285.333 15.533 C 285.333 14.828,285.052 14.667,283.821 14.667 L 282.709 14.667 282.606 14.020 C 282.464 13.134,282.864 13.172,273.472 13.169 C 264.221 13.166,264.667 13.124,264.667 14.011 L 264.667 14.653 263.292 14.702 L 261.917 14.750 261.865 15.375 L 261.813 16.000 260.772 16.000 C 259.626 16.000,259.228 16.201,259.118 16.833 C 259.078 17.063,259.035 16.496,259.023 15.574 C 258.988 12.999,259.907 13.259,250.624 13.201 C 244.010 13.160,242.688 13.190,242.526 13.385 M106.365 29.125 C 106.414 29.714,106.452 29.753,107.032 29.801 C 107.610 29.849,107.651 29.890,107.699 30.468 C 107.747 31.048,107.786 31.086,108.375 31.135 L 109.000 31.187 109.000 32.996 C 109.000 35.252,109.030 35.333,109.851 35.333 L 110.500 35.333 110.500 44.417 L 110.500 53.500 102.083 53.500 L 93.667 53.500 93.667 42.343 L 93.667 31.186 94.375 31.135 C 95.063 31.085,95.085 31.065,95.135 30.458 C 95.185 29.851,95.205 29.833,95.843 29.833 C 96.498 29.833,96.500 29.832,96.500 29.167 L 96.500 28.500 101.407 28.500 L 106.313 28.500 106.365 29.125 M163.198 29.125 C 163.248 29.732,163.271 29.752,163.958 29.801 L 164.667 29.852 164.667 31.174 L 164.667 32.496 165.333 32.603 L 166.000 32.709 166.000 63.271 L 166.000 93.833 165.333 93.833 L 164.667 93.833 164.667 95.167 L 164.667 96.500 163.678 96.500 C 162.222 96.500,161.833 96.692,161.833 97.413 L 161.833 98.000 159.000 98.000 L 156.167 98.000 156.167 97.353 C 156.167 96.551,156.036 96.505,153.708 96.502 L 152.000 96.500 152.000 95.833 L 152.000 95.167 151.333 95.167 C 150.771 95.167,150.667 95.113,150.667 94.822 C 150.667 93.997,150.403 93.833,149.077 93.833 L 147.833 93.833 147.833 63.260 L 147.833 32.686 148.542 32.635 C 149.245 32.584,149.250 32.579,149.301 31.882 L 149.352 31.180 150.634 31.132 L 151.917 31.083 151.968 30.465 L 152.019 29.847 153.385 29.798 L 154.750 29.750 154.802 29.125 L 154.853 28.500 159.000 28.500 L 163.147 28.500 163.198 29.125 M220.167 79.833 L 220.167 93.833 219.500 93.833 C 218.834 93.833,218.833 93.834,218.833 94.493 L 218.833 95.153 217.458 95.202 L 216.083 95.250 216.033 95.854 L 215.982 96.458 214.135 96.534 C 212.144 96.616,211.833 96.762,211.833 97.615 C 211.833 97.997,211.815 98.000,209.753 98.000 L 207.673 98.000 207.573 97.542 C 207.517 97.290,207.447 97.000,207.417 96.899 C 207.356 96.695,206.420 96.505,205.465 96.502 L 204.847 96.500 204.799 95.208 L 204.750 93.917 204.125 93.865 L 203.500 93.813 203.500 84.740 L 203.500 75.667 203.905 75.667 C 204.609 75.667,204.833 75.261,204.833 73.988 C 204.833 72.834,204.834 72.833,205.300 72.833 C 205.892 72.833,206.167 72.559,206.167 71.967 C 206.167 71.590,206.241 71.500,206.551 71.500 C 207.076 71.500,207.466 71.168,207.530 70.667 C 207.575 70.318,207.692 70.236,208.250 70.167 C 208.899 70.086,208.918 70.065,208.968 69.380 L 209.019 68.677 211.051 68.630 L 213.083 68.583 213.135 67.958 L 213.187 67.333 214.998 67.333 C 216.967 67.333,217.333 67.189,217.333 66.412 C 217.333 66.029,217.386 66.011,218.708 65.957 C 219.465 65.926,220.102 65.886,220.125 65.867 C 220.148 65.849,220.167 72.133,220.167 79.833 " stroke="none" fill="#fcfcfc" fill-rule="evenodd"></path><path id="path1" d="M59.000 23.667 L 59.000 24.333 58.333 24.333 L 57.667 24.333 57.667 25.000 C 57.667 25.659,57.659 25.667,57.042 25.669 C 56.081 25.671,55.144 25.861,55.083 26.066 C 55.053 26.167,54.983 26.456,54.927 26.708 C 54.846 27.082,54.736 27.167,54.336 27.167 C 53.814 27.167,53.500 27.538,53.500 28.156 C 53.500 28.393,53.393 28.500,53.156 28.500 C 52.538 28.500,52.167 28.814,52.167 29.336 C 52.167 29.736,52.082 29.846,51.708 29.927 C 50.907 30.103,50.833 30.149,50.833 30.481 C 50.833 31.091,50.640 31.333,50.155 31.333 C 49.651 31.333,49.333 31.712,49.333 32.312 C 49.333 32.578,49.206 32.657,48.708 32.698 C 48.117 32.747,48.081 32.784,48.032 33.375 C 47.983 33.958,47.944 34.000,47.440 34.000 C 46.757 34.000,46.500 34.257,46.500 34.940 C 46.500 35.444,46.458 35.483,45.875 35.532 C 45.286 35.580,45.247 35.619,45.199 36.199 C 45.151 36.777,45.110 36.817,44.532 36.866 C 43.952 36.914,43.914 36.953,43.865 37.542 C 43.817 38.125,43.777 38.167,43.273 38.167 C 42.588 38.167,42.333 38.424,42.333 39.117 C 42.333 39.647,42.310 39.667,41.667 39.667 L 41.000 39.667 41.000 40.333 L 41.000 41.000 40.333 41.000 C 39.668 41.000,39.667 41.002,39.667 41.657 C 39.667 42.311,39.663 42.314,38.958 42.365 C 38.253 42.416,38.250 42.420,38.199 43.125 C 38.148 43.830,38.144 43.833,37.490 43.833 C 36.835 43.833,36.833 43.835,36.833 44.500 L 36.833 45.167 36.167 45.167 C 35.502 45.167,35.500 45.168,35.500 45.824 C 35.500 46.478,35.497 46.481,34.792 46.532 C 34.087 46.583,34.083 46.587,34.032 47.292 C 33.981 47.997,33.978 48.000,33.324 48.000 C 32.668 48.000,32.667 48.002,32.667 48.667 L 32.667 49.333 32.000 49.333 C 31.335 49.333,31.333 49.335,31.333 49.990 C 31.333 50.644,31.330 50.648,30.625 50.699 C 29.920 50.750,29.916 50.753,29.865 51.458 C 29.814 52.163,29.811 52.167,29.157 52.167 C 28.502 52.167,28.500 52.168,28.500 52.833 L 28.500 53.500 27.449 53.500 C 25.598 53.500,25.757 52.677,25.701 62.551 C 25.645 72.518,25.662 72.728,26.535 72.801 C 27.110 72.849,27.151 72.890,27.199 73.468 C 27.246 74.030,27.300 74.091,27.827 74.167 C 28.321 74.238,28.420 74.329,28.516 74.800 C 28.654 75.480,28.687 75.512,29.367 75.651 C 29.838 75.747,29.929 75.846,30.000 76.340 L 30.083 76.917 31.375 76.965 L 32.667 77.014 32.667 77.757 L 32.667 78.500 33.333 78.500 L 34.000 78.500 34.000 79.167 L 34.000 79.833 34.750 79.833 L 35.500 79.833 35.500 80.500 L 35.500 81.167 36.167 81.167 L 36.833 81.167 36.833 81.917 L 36.833 82.667 37.490 82.667 C 38.128 82.667,38.148 82.684,38.198 83.292 C 38.248 83.898,38.271 83.918,38.958 83.968 C 39.663 84.019,39.667 84.022,39.667 84.676 C 39.667 85.330,39.670 85.333,40.324 85.333 C 40.978 85.333,40.981 85.337,41.032 86.042 C 41.082 86.727,41.103 86.752,41.699 86.801 C 42.277 86.849,42.317 86.890,42.366 87.468 C 42.415 88.063,42.440 88.085,43.125 88.135 C 43.830 88.186,43.833 88.189,43.833 88.843 C 43.833 89.498,43.835 89.500,44.500 89.500 C 45.164 89.500,45.167 89.503,45.167 90.149 C 45.167 90.835,45.347 91.000,46.097 91.000 C 46.412 91.000,46.500 91.088,46.500 91.403 C 46.500 92.153,46.665 92.333,47.351 92.333 C 47.997 92.333,48.000 92.336,48.000 93.000 L 48.000 93.667 48.667 93.667 C 49.229 93.667,49.333 93.720,49.333 94.011 C 49.333 94.567,49.650 95.000,50.056 95.000 C 50.537 95.000,50.833 95.296,50.833 95.777 C 50.833 96.183,51.267 96.500,51.822 96.500 C 52.088 96.500,52.167 96.606,52.167 96.967 C 52.167 97.559,52.441 97.833,53.033 97.833 C 53.410 97.833,53.500 97.908,53.500 98.218 C 53.500 98.951,53.839 99.173,55.127 99.281 L 56.333 99.382 56.333 100.024 C 56.333 100.663,56.338 100.667,57.000 100.667 L 57.667 100.667 57.667 101.333 C 57.667 101.998,57.668 102.000,58.324 102.000 C 58.978 102.000,58.981 102.003,59.032 102.708 L 59.083 103.417 60.417 103.417 L 61.750 103.417 61.793 93.193 C 61.842 81.468,61.840 81.439,60.965 81.366 C 60.390 81.317,60.349 81.277,60.301 80.699 C 60.254 80.137,60.200 80.076,59.673 80.000 C 59.176 79.928,59.080 79.839,58.981 79.353 C 58.830 78.609,58.625 78.506,57.292 78.503 L 56.167 78.500 56.167 77.833 L 56.167 77.167 55.500 77.167 L 54.833 77.167 54.833 76.417 L 54.833 75.667 54.167 75.667 L 53.500 75.667 53.500 75.000 L 53.500 74.333 52.750 74.333 L 52.000 74.333 52.000 73.667 C 52.000 73.002,51.998 73.000,51.343 73.000 C 50.689 73.000,50.686 72.997,50.635 72.292 C 50.585 71.606,50.563 71.582,49.968 71.532 C 49.390 71.484,49.349 71.444,49.301 70.866 C 49.252 70.270,49.227 70.248,48.542 70.199 C 47.837 70.148,47.833 70.144,47.833 69.490 C 47.833 68.835,47.832 68.833,47.167 68.833 C 46.503 68.833,46.500 68.830,46.500 68.184 C 46.500 67.498,46.320 67.333,45.570 67.333 C 45.255 67.333,45.167 67.245,45.167 66.930 C 45.167 66.180,45.002 66.000,44.316 66.000 C 43.670 66.000,43.667 65.997,43.667 65.333 L 43.667 64.667 43.000 64.667 C 42.336 64.667,42.333 64.664,42.333 64.018 C 42.333 63.558,42.250 63.337,42.046 63.259 C 41.821 63.172,41.807 63.119,41.980 63.013 C 42.101 62.938,42.252 62.623,42.315 62.313 C 42.414 61.828,42.509 61.738,43.006 61.667 C 43.535 61.590,43.588 61.531,43.635 60.958 C 43.685 60.351,43.705 60.333,44.341 60.333 C 44.975 60.333,44.999 60.312,45.101 59.676 C 45.199 59.063,45.248 59.014,45.812 58.967 C 46.380 58.920,46.420 58.879,46.468 58.292 C 46.512 57.761,46.579 57.667,46.913 57.667 C 47.653 57.667,47.833 57.499,47.833 56.816 C 47.833 56.173,47.839 56.167,48.482 56.167 C 49.166 56.167,49.333 55.986,49.333 55.246 C 49.333 54.913,49.427 54.846,49.958 54.802 C 50.549 54.753,50.586 54.716,50.635 54.125 C 50.679 53.594,50.746 53.500,51.080 53.500 C 51.816 53.500,52.000 53.332,52.000 52.658 C 52.000 52.026,52.007 52.019,52.708 51.968 C 53.396 51.918,53.418 51.898,53.468 51.292 C 53.519 50.684,53.538 50.667,54.177 50.667 C 54.830 50.667,54.833 50.663,54.833 50.010 C 54.833 49.372,54.851 49.352,55.458 49.302 C 56.064 49.252,56.085 49.228,56.134 48.551 C 56.184 47.858,56.192 47.851,56.884 47.801 C 57.561 47.752,57.585 47.730,57.635 47.125 C 57.685 46.517,57.705 46.500,58.343 46.500 C 58.998 46.500,59.000 46.498,59.000 45.833 L 59.000 45.167 59.667 45.167 L 60.333 45.167 60.333 44.417 L 60.333 43.667 61.083 43.667 L 61.833 43.667 61.833 33.333 L 61.833 23.000 60.417 23.000 L 59.000 23.000 59.000 23.667 M338.167 33.333 L 338.167 43.667 338.917 43.667 L 339.667 43.667 339.667 44.417 L 339.667 45.167 340.333 45.167 L 341.000 45.167 341.000 45.833 C 341.000 46.498,341.002 46.500,341.657 46.500 C 342.295 46.500,342.315 46.517,342.365 47.125 C 342.415 47.730,342.439 47.752,343.116 47.801 C 343.808 47.851,343.816 47.858,343.866 48.551 C 343.915 49.228,343.936 49.252,344.542 49.302 C 345.149 49.352,345.167 49.372,345.167 50.010 C 345.167 50.663,345.170 50.667,345.823 50.667 C 346.462 50.667,346.481 50.684,346.532 51.292 C 346.582 51.898,346.604 51.918,347.292 51.968 C 347.993 52.019,348.000 52.026,348.000 52.658 C 348.000 53.332,348.184 53.500,348.920 53.500 C 349.254 53.500,349.321 53.594,349.365 54.125 C 349.414 54.716,349.451 54.753,350.042 54.802 C 350.573 54.846,350.667 54.913,350.667 55.246 C 350.667 55.986,350.834 56.167,351.518 56.167 C 352.161 56.167,352.167 56.173,352.167 56.816 C 352.167 57.499,352.347 57.667,353.087 57.667 C 353.421 57.667,353.488 57.761,353.532 58.292 C 353.580 58.879,353.620 58.920,354.188 58.967 C 354.752 59.014,354.801 59.063,354.899 59.676 C 355.001 60.312,355.025 60.333,355.659 60.333 C 356.295 60.333,356.315 60.351,356.365 60.958 C 356.412 61.531,356.465 61.590,356.994 61.667 C 357.491 61.738,357.586 61.828,357.685 62.313 C 357.748 62.623,357.899 62.938,358.020 63.013 C 358.193 63.119,358.179 63.172,357.954 63.259 C 357.750 63.337,357.667 63.558,357.667 64.018 C 357.667 64.664,357.664 64.667,357.000 64.667 L 356.333 64.667 356.333 65.333 C 356.333 65.997,356.330 66.000,355.684 66.000 C 354.998 66.000,354.833 66.180,354.833 66.930 C 354.833 67.245,354.745 67.333,354.430 67.333 C 353.680 67.333,353.500 67.498,353.500 68.184 C 353.500 68.830,353.497 68.833,352.833 68.833 C 352.168 68.833,352.167 68.835,352.167 69.490 C 352.167 70.144,352.163 70.148,351.458 70.199 C 350.773 70.248,350.748 70.270,350.699 70.866 C 350.651 71.444,350.610 71.484,350.032 71.532 C 349.437 71.582,349.415 71.606,349.365 72.292 C 349.314 72.997,349.311 73.000,348.657 73.000 C 348.002 73.000,348.000 73.002,348.000 73.667 L 348.000 74.333 347.250 74.333 L 346.500 74.333 346.500 75.000 L 346.500 75.667 345.833 75.667 L 345.167 75.667 345.167 76.417 L 345.167 77.167 344.500 77.167 L 343.833 77.167 343.833 77.833 L 343.833 78.500 342.708 78.503 C 341.375 78.506,341.170 78.609,341.019 79.353 C 340.920 79.839,340.824 79.928,340.327 80.000 C 339.800 80.076,339.746 80.137,339.699 80.699 C 339.651 81.277,339.610 81.317,339.035 81.366 C 338.160 81.439,338.158 81.468,338.207 93.193 L 338.250 103.417 339.583 103.417 L 340.917 103.417 340.968 102.708 C 341.019 102.003,341.022 102.000,341.676 102.000 C 342.332 102.000,342.333 101.998,342.333 101.333 L 342.333 100.667 343.000 100.667 C 343.662 100.667,343.667 100.663,343.667 100.024 L 343.667 99.382 344.873 99.281 C 346.161 99.173,346.500 98.951,346.500 98.218 C 346.500 97.908,346.590 97.833,346.967 97.833 C 347.559 97.833,347.833 97.559,347.833 96.967 C 347.833 96.606,347.912 96.500,348.178 96.500 C 348.733 96.500,349.167 96.183,349.167 95.777 C 349.167 95.296,349.463 95.000,349.944 95.000 C 350.350 95.000,350.667 94.567,350.667 94.011 C 350.667 93.720,350.771 93.667,351.333 93.667 L 352.000 93.667 352.000 93.000 C 352.000 92.336,352.003 92.333,352.649 92.333 C 353.335 92.333,353.500 92.153,353.500 91.403 C 353.500 91.088,353.588 91.000,353.903 91.000 C 354.653 91.000,354.833 90.835,354.833 90.149 C 354.833 89.503,354.836 89.500,355.500 89.500 C 356.165 89.500,356.167 89.498,356.167 88.843 C 356.167 88.189,356.170 88.186,356.875 88.135 C 357.560 88.085,357.585 88.063,357.634 87.468 C 357.683 86.890,357.723 86.849,358.301 86.801 C 358.897 86.752,358.918 86.727,358.968 86.042 C 359.019 85.337,359.022 85.333,359.676 85.333 C 360.330 85.333,360.333 85.330,360.333 84.676 C 360.333 84.022,360.337 84.019,361.042 83.968 C 361.729 83.918,361.752 83.898,361.802 83.292 C 361.852 82.684,361.872 82.667,362.510 82.667 L 363.167 82.667 363.167 81.917 L 363.167 81.167 363.833 81.167 L 364.500 81.167 364.500 80.500 L 364.500 79.833 365.250 79.833 L 366.000 79.833 366.000 79.167 L 366.000 78.500 366.667 78.500 L 367.333 78.500 367.333 77.757 L 367.333 77.014 368.625 76.965 L 369.917 76.917 370.000 76.340 C 370.071 75.846,370.162 75.747,370.633 75.651 C 371.313 75.512,371.346 75.480,371.484 74.800 C 371.580 74.329,371.679 74.238,372.173 74.167 C 372.700 74.091,372.754 74.030,372.801 73.468 C 372.849 72.890,372.890 72.849,373.465 72.801 C 374.338 72.728,374.355 72.518,374.299 62.551 C 374.243 52.677,374.402 53.500,372.551 53.500 L 371.500 53.500 371.500 52.833 C 371.500 52.168,371.498 52.167,370.843 52.167 C 370.189 52.167,370.186 52.163,370.135 51.458 C 370.084 50.753,370.080 50.750,369.375 50.699 C 368.670 50.648,368.667 50.644,368.667 49.990 C 368.667 49.335,368.665 49.333,368.000 49.333 L 367.333 49.333 367.333 48.667 C 367.333 48.002,367.332 48.000,366.676 48.000 C 366.022 48.000,366.019 47.997,365.968 47.292 C 365.917 46.587,365.913 46.583,365.208 46.532 C 364.503 46.481,364.500 46.478,364.500 45.824 C 364.500 45.168,364.498 45.167,363.833 45.167 L 363.167 45.167 363.167 44.500 C 363.167 43.835,363.165 43.833,362.510 43.833 C 361.856 43.833,361.852 43.830,361.801 43.125 C 361.750 42.420,361.747 42.416,361.042 42.365 C 360.337 42.314,360.333 42.311,360.333 41.657 C 360.333 41.002,360.332 41.000,359.667 41.000 L 359.000 41.000 359.000 40.333 L 359.000 39.667 358.333 39.667 C 357.690 39.667,357.667 39.647,357.667 39.117 C 357.667 38.424,357.412 38.167,356.727 38.167 C 356.223 38.167,356.183 38.125,356.135 37.542 C 356.086 36.951,356.049 36.914,355.458 36.865 C 354.851 36.815,354.833 36.795,354.833 36.157 C 354.833 35.502,354.832 35.500,354.167 35.500 C 353.524 35.500,353.500 35.481,353.500 34.950 C 353.500 34.257,353.246 34.000,352.560 34.000 C 352.056 34.000,352.017 33.958,351.968 33.375 C 351.919 32.784,351.883 32.747,351.292 32.698 C 350.794 32.657,350.667 32.578,350.667 32.312 C 350.667 31.705,350.350 31.333,349.831 31.333 C 349.431 31.333,349.321 31.249,349.239 30.875 C 349.064 30.073,349.017 30.000,348.686 30.000 C 348.076 30.000,347.833 29.807,347.833 29.321 C 347.833 28.815,347.454 28.500,346.844 28.500 C 346.607 28.500,346.500 28.393,346.500 28.156 C 346.500 27.538,346.186 27.167,345.664 27.167 C 345.264 27.167,345.154 27.082,345.073 26.708 C 345.017 26.456,344.947 26.167,344.917 26.066 C 344.856 25.861,343.919 25.671,342.958 25.669 C 342.341 25.667,342.333 25.659,342.333 25.000 L 342.333 24.333 341.667 24.333 L 341.000 24.333 341.000 23.667 L 341.000 23.000 339.583 23.000 L 338.167 23.000 338.167 33.333 " stroke="none" fill="#34c4d4" fill-rule="evenodd"></path><path id="path2" d="" stroke="none" fill="#100e0e8" fill-rule="evenodd"></path><path id="path3" d="" stroke="none" fill="#100e0e8" fill-rule="evenodd"></path><path id="path4" d="" stroke="none" fill="#100e0e8" fill-rule="evenodd"></path></g></svg>